<svg xmlns="http://www.w3.org/2000/svg" width="717.7286987304688" height="542.8111572265625" viewBox="-575.7749633789062 -444.51031494140625 717.7286987304688 542.8111572265625"><title>Neo4j Graph Visualization</title><desc>Created using Neo4j (http://www.neo4j.com/)</desc><g class="layer relationships"><g class="relationship" transform="translate(-209.6030739755803 16.92142389314241) rotate(247.91796463871083)"><path class="outline" fill="#A5ABB6" stroke="none" d="M 25 0.5 L 109.09623293052451 0.5 L 109.09623293052451 -0.5 L 25 -0.5 Z M 143.5415454305245 0.5 L 227.63777836104902 0.5 L 227.63777836104902 3.5 L 234.63777836104902 0 L 227.63777836104902 -3.5 L 227.63777836104902 -0.5 L 143.5415454305245 -0.5 Z"/><text text-anchor="middle" pointer-events="none" font-size="8px" fill="#000000" x="126.31888918052451" y="3" transform="rotate(180 126.31888918052451 0)" font-family="sans-serif">ORIGIN</text></g><g class="relationship" transform="translate(-209.6030739755803 16.92142389314241) rotate(229.21888214046112)"><path class="outline" fill="#A5ABB6" stroke="none" d="M 25 0.5 L 64.69274805619557 0.5 L 64.69274805619557 -0.5 L 25 -0.5 Z M 123.88024805619557 0.5 L 163.57299611239114 0.5 L 163.57299611239114 3.5 L 170.57299611239114 0 L 163.57299611239114 -3.5 L 163.57299611239114 -0.5 L 123.88024805619557 -0.5 Z"/><text text-anchor="middle" pointer-events="none" font-size="8px" fill="#000000" x="94.28649805619557" y="3" transform="rotate(180 94.28649805619557 0)" font-family="sans-serif">DESTINATION</text></g><g class="relationship" transform="translate(-113.0544181424615 -1.9947354621180675) rotate(228.78649213718347)"><path class="outline" fill="#A5ABB6" stroke="none" d="M 25 0.5 L 126.61763178289002 0.5 L 126.61763178289002 -0.5 L 25 -0.5 Z M 161.06294428289002 0.5 L 262.68057606578003 0.5 L 262.68057606578003 3.5 L 269.68057606578003 0 L 262.68057606578003 -3.5 L 262.68057606578003 -0.5 L 161.06294428289002 -0.5 Z"/><text text-anchor="middle" pointer-events="none" font-size="8px" fill="#000000" x="143.84028803289002" y="3" transform="rotate(180 143.84028803289002 0)" font-family="sans-serif">ORIGIN</text></g><g class="relationship" transform="translate(-113.0544181424615 -1.9947354621180675) rotate(384.1951306355543)"><path class="outline" fill="#A5ABB6" stroke="none" d="M 25 0.5 L 53.88487991794757 0.5 L 53.88487991794757 -0.5 L 25 -0.5 Z M 113.07237991794757 0.5 L 141.95725983589514 0.5 L 141.95725983589514 3.5 L 148.95725983589514 0 L 141.95725983589514 -3.5 L 141.95725983589514 -0.5 L 113.07237991794757 -0.5 Z"/><text text-anchor="middle" pointer-events="none" font-size="8px" fill="#000000" x="83.47862991794757" y="3" font-family="sans-serif">DESTINATION</text></g><g class="relationship" transform="translate(-48.046011235829184 -188.61751555981488) rotate(187.70286787702202)"><path class="outline" fill="#A5ABB6" stroke="none" d="M 25 0.5 L 110.03910532153677 0.5 L 110.03910532153677 -0.5 L 25 -0.5 Z M 144.48441782153677 0.5 L 229.52352314307353 0.5 L 229.52352314307353 3.5 L 236.52352314307353 0 L 229.52352314307353 -3.5 L 229.52352314307353 -0.5 L 144.48441782153677 -0.5 Z"/><text text-anchor="middle" pointer-events="none" font-size="8px" fill="#000000" x="127.26176157153677" y="3" transform="rotate(180 127.26176157153677 0)" font-family="sans-serif">ORIGIN</text></g><g class="relationship" transform="translate(-48.046011235829184 -188.61751555981488) rotate(381.3719491386403)"><path class="outline" fill="#A5ABB6" stroke="none" d="M 25 0.5 L 53.35052614163084 0.5 L 53.35052614163084 -0.5 L 25 -0.5 Z M 112.53802614163084 0.5 L 140.88855228326167 0.5 L 140.88855228326167 3.5 L 147.88855228326167 0 L 140.88855228326167 -3.5 L 140.88855228326167 -0.5 L 112.53802614163084 -0.5 Z"/><text text-anchor="middle" pointer-events="none" font-size="8px" fill="#000000" x="82.94427614163084" y="3" font-family="sans-serif">DESTINATION</text></g><g class="relationship" transform="translate(-177.33458541357757 -76.08052038124247) rotate(228.65321967678875)"><path class="outline" fill="#A5ABB6" stroke="none" d="M 25 0.5 L 77.57599135287413 0.5 L 77.57599135287413 -0.5 L 25 -0.5 Z M 112.02130385287413 0.5 L 164.59729520574825 0.5 L 164.59729520574825 3.5 L 171.59729520574825 0 L 164.59729520574825 -3.5 L 164.59729520574825 -0.5 L 112.02130385287413 -0.5 Z"/><text text-anchor="middle" pointer-events="none" font-size="8px" fill="#000000" x="94.79864760287413" y="3" transform="rotate(180 94.79864760287413 0)" font-family="sans-serif">ORIGIN</text></g><g class="relationship" transform="translate(-177.33458541357757 -76.08052038124247) rotate(198.99734525142475)"><path class="outline" fill="#A5ABB6" stroke="none" d="M 25 0.5 L 51.52043337354513 0.5 L 51.52043337354513 -0.5 L 25 -0.5 Z M 110.70793337354513 0.5 L 137.22836674709026 0.5 L 137.22836674709026 3.5 L 144.22836674709026 0 L 137.22836674709026 -3.5 L 137.22836674709026 -0.5 L 110.70793337354513 -0.5 Z"/><text text-anchor="middle" pointer-events="none" font-size="8px" fill="#000000" x="81.11418337354513" y="3" transform="rotate(180 81.11418337354513 0)" font-family="sans-serif">DESTINATION</text></g><g class="relationship" transform="translate(-88.85169144370283 -357.6113366610173) rotate(508.4751382412798)"><path class="outline" fill="#A5ABB6" stroke="none" d="M 25 0.5 L 107.3595589727936 0.5 L 107.3595589727936 -0.5 L 25 -0.5 Z M 141.8048714727936 0.5 L 224.1644304455872 0.5 L 224.1644304455872 3.5 L 231.1644304455872 0 L 224.1644304455872 -3.5 L 224.1644304455872 -0.5 L 141.8048714727936 -0.5 Z"/><text text-anchor="middle" pointer-events="none" font-size="8px" fill="#000000" x="124.5822152227936" y="3" transform="rotate(180 124.5822152227936 0)" font-family="sans-serif">ORIGIN</text></g><g class="relationship" transform="translate(-88.85169144370283 -357.6113366610173) rotate(357.3165727569691)"><path class="outline" fill="#A5ABB6" stroke="none" d="M 25 0.5 L 49.80565795396525 0.5 L 49.80565795396525 -0.5 L 25 -0.5 Z M 108.99315795396525 0.5 L 133.7988159079305 0.5 L 133.7988159079305 3.5 L 140.7988159079305 0 L 133.7988159079305 -3.5 L 133.7988159079305 -0.5 L 108.99315795396525 -0.5 Z"/><text text-anchor="middle" pointer-events="none" font-size="8px" fill="#000000" x="79.39940795396525" y="3" font-family="sans-serif">DESTINATION</text></g><g class="relationship" transform="translate(-146.04966330700583 -168.4821427940749) rotate(198.90365288753895)"><path class="outline" fill="#A5ABB6" stroke="none" d="M 25 0.5 L 64.45122800102553 0.5 L 64.45122800102553 -0.5 L 25 -0.5 Z M 98.89654050102553 0.5 L 138.34776850205105 0.5 L 138.34776850205105 3.5 L 145.34776850205105 0 L 138.34776850205105 -3.5 L 138.34776850205105 -0.5 L 98.89654050102553 -0.5 Z"/><text text-anchor="middle" pointer-events="none" font-size="8px" fill="#000000" x="81.67388425102553" y="3" transform="rotate(180 81.67388425102553 0)" font-family="sans-serif">ORIGIN</text></g><g class="relationship" transform="translate(-146.04966330700583 -168.4821427940749) rotate(528.9626338992175)"><path class="outline" fill="#A5ABB6" stroke="none" d="M 25 0.5 L 64.35685858585606 0.5 L 64.35685858585606 -0.5 L 25 -0.5 Z M 123.54435858585606 0.5 L 162.90121717171212 0.5 L 162.90121717171212 3.5 L 169.90121717171212 0 L 162.90121717171212 -3.5 L 162.90121717171212 -0.5 L 123.54435858585606 -0.5 Z"/><text text-anchor="middle" pointer-events="none" font-size="8px" fill="#000000" x="93.95060858585606" y="3" transform="rotate(180 93.95060858585606 0)" font-family="sans-serif">DESTINATION</text></g><g class="relationship" transform="translate(-80.16369318974162 -94.68974462903833) rotate(209.60023150948336)"><path class="outline" fill="#A5ABB6" stroke="none" d="M 25 0.5 L 109.83963631011466 0.5 L 109.83963631011466 -0.5 L 25 -0.5 Z M 144.28494881011466 0.5 L 229.1245851202293 0.5 L 229.1245851202293 3.5 L 236.1245851202293 0 L 229.1245851202293 -3.5 L 229.1245851202293 -0.5 L 144.28494881011466 -0.5 Z"/><text text-anchor="middle" pointer-events="none" font-size="8px" fill="#000000" x="127.06229256011466" y="3" transform="rotate(180 127.06229256011466 0)" font-family="sans-serif">ORIGIN</text></g><g class="relationship" transform="translate(-80.16369318974162 -94.68974462903833) rotate(412.51081464894827)"><path class="outline" fill="#A5ABB6" stroke="none" d="M 25 0.5 L 70.24410619795529 0.5 L 70.24410619795529 -0.5 L 25 -0.5 Z M 129.4316061979553 0.5 L 174.67571239591058 0.5 L 174.67571239591058 3.5 L 181.67571239591058 0 L 174.67571239591058 -3.5 L 174.67571239591058 -0.5 L 129.4316061979553 -0.5 Z"/><text text-anchor="middle" pointer-events="none" font-size="8px" fill="#000000" x="99.83785619795529" y="3" font-family="sans-serif">DESTINATION</text></g><g class="relationship" transform="translate(-113.88601380929607 -262.46516583868373) rotate(528.653194833654)"><path class="outline" fill="#A5ABB6" stroke="none" d="M 25 0.5 L 77.86616549272709 0.5 L 77.86616549272709 -0.5 L 25 -0.5 Z M 112.31147799272709 0.5 L 165.17764348545418 0.5 L 165.17764348545418 3.5 L 172.17764348545418 0 L 165.17764348545418 -3.5 L 165.17764348545418 -0.5 L 112.31147799272709 -0.5 Z"/><text text-anchor="middle" pointer-events="none" font-size="8px" fill="#000000" x="95.08882174272709" y="3" transform="rotate(180 95.08882174272709 0)" font-family="sans-serif">ORIGIN</text></g><g class="relationship" transform="translate(-113.88601380929607 -262.46516583868373) rotate(499.25363138491934)"><path class="outline" fill="#A5ABB6" stroke="none" d="M 25 0.5 L 52.30353563522094 0.5 L 52.30353563522094 -0.5 L 25 -0.5 Z M 111.49103563522094 0.5 L 138.79457127044188 0.5 L 138.79457127044188 3.5 L 145.79457127044188 0 L 138.79457127044188 -3.5 L 138.79457127044188 -0.5 L 111.49103563522094 -0.5 Z"/><text text-anchor="middle" pointer-events="none" font-size="8px" fill="#000000" x="81.89728563522094" y="3" transform="rotate(180 81.89728563522094 0)" font-family="sans-serif">DESTINATION</text></g><g class="relationship" transform="translate(-274.8544093289922 -316.6437708772725) rotate(469.18830918676133)"><path class="outline" fill="#A5ABB6" stroke="none" d="M 25 0.5 L 28.49825978645618 0.5 L 28.49825978645618 -0.5 L 25 -0.5 Z M 62.94357228645618 0.5 L 66.44183207291236 0.5 L 66.44183207291236 3.5 L 73.44183207291236 0 L 66.44183207291236 -3.5 L 66.44183207291236 -0.5 L 62.94357228645618 -0.5 Z"/><text text-anchor="middle" pointer-events="none" font-size="8px" fill="#000000" x="45.72091603645618" y="3" transform="rotate(180 45.72091603645618 0)" font-family="sans-serif">ORIGIN</text></g><g class="relationship" transform="translate(-274.8544093289922 -316.6437708772725) rotate(468.6199653241061)"><path class="outline" fill="#A5ABB6" stroke="none" d="M 25 0.5 L 64.76615960491385 0.5 L 64.76615960491385 -0.5 L 25 -0.5 Z M 123.95365960491385 0.5 L 163.7198192098277 0.5 L 163.7198192098277 3.5 L 170.7198192098277 0 L 163.7198192098277 -3.5 L 163.7198192098277 -0.5 L 123.95365960491385 -0.5 Z"/><text text-anchor="middle" pointer-events="none" font-size="8px" fill="#000000" x="94.35990960491385" y="3" transform="rotate(180 94.35990960491385 0)" font-family="sans-serif">DESTINATION</text></g><g class="relationship" transform="translate(-187.12386059722542 -364.05206866253235) rotate(490.54459201366797)"><path class="outline" fill="#A5ABB6" stroke="none" d="M 25 0.5 L 71.64541130650672 0.5 L 71.64541130650672 -0.5 L 25 -0.5 Z M 106.09072380650672 0.5 L 152.73613511301343 0.5 L 152.73613511301343 3.5 L 159.73613511301343 0 L 152.73613511301343 -3.5 L 152.73613511301343 -0.5 L 106.09072380650672 -0.5 Z"/><text text-anchor="middle" pointer-events="none" font-size="8px" fill="#000000" x="88.86806755650672" y="3" transform="rotate(180 88.86806755650672 0)" font-family="sans-serif">ORIGIN</text></g><g class="relationship" transform="translate(-187.12386059722542 -364.05206866253235) rotate(460.8356747540289)"><path class="outline" fill="#A5ABB6" stroke="none" d="M 25 0.5 L 28.441338734481107 0.5 L 28.441338734481107 -0.5 L 25 -0.5 Z M 87.6288387344811 0.5 L 91.07017746896221 0.5 L 91.07017746896221 3.5 L 98.07017746896221 0 L 91.07017746896221 -3.5 L 91.07017746896221 -0.5 L 87.6288387344811 -0.5 Z"/><text text-anchor="middle" pointer-events="none" font-size="8px" fill="#000000" x="58.03508873448111" y="3" transform="rotate(180 58.03508873448111 0)" font-family="sans-serif">DESTINATION</text></g><g class="relationship" transform="translate(-412.19436162509743 -286.21388115385963) rotate(390.78365727334244)"><path class="outline" fill="#A5ABB6" stroke="none" d="M 25 0.5 L 40.37847524418573 0.5 L 40.37847524418573 -0.5 L 25 -0.5 Z M 74.82378774418572 0.5 L 90.20226298837146 0.5 L 90.20226298837146 3.5 L 97.20226298837146 0 L 90.20226298837146 -3.5 L 90.20226298837146 -0.5 L 74.82378774418572 -0.5 Z"/><text text-anchor="middle" pointer-events="none" font-size="8px" fill="#000000" x="57.60113149418573" y="3" font-family="sans-serif">ORIGIN</text></g><g class="relationship" transform="translate(-412.19436162509743 -286.21388115385963) rotate(398.6800099831636)"><path class="outline" fill="#A5ABB6" stroke="none" d="M 25 0.5 L 75.09405470526477 0.5 L 75.09405470526477 -0.5 L 25 -0.5 Z M 134.28155470526477 0.5 L 184.37560941052953 0.5 L 184.37560941052953 3.5 L 191.37560941052953 0 L 184.37560941052953 -3.5 L 184.37560941052953 -0.5 L 134.28155470526477 -0.5 Z"/><text text-anchor="middle" pointer-events="none" font-size="8px" fill="#000000" x="104.68780470526477" y="3" font-family="sans-serif">DESTINATION</text></g><g class="relationship" transform="translate(-271.2926199663515 -415.5103294662919) rotate(460.6044163889051)"><path class="outline" fill="#A5ABB6" stroke="none" d="M 25 0.5 L 76.86365527592017 0.5 L 76.86365527592017 -0.5 L 25 -0.5 Z M 111.30896777592017 0.5 L 163.17262305184033 0.5 L 163.17262305184033 3.5 L 170.17262305184033 0 L 163.17262305184033 -3.5 L 163.17262305184033 -0.5 L 111.30896777592017 -0.5 Z"/><text text-anchor="middle" pointer-events="none" font-size="8px" fill="#000000" x="94.08631152592017" y="3" transform="rotate(180 94.08631152592017 0)" font-family="sans-serif">ORIGIN</text></g><g class="relationship" transform="translate(-271.2926199663515 -415.5103294662919) rotate(430.49831035187316)"><path class="outline" fill="#A5ABB6" stroke="none" d="M 25 0.5 L 58.31743137807308 0.5 L 58.31743137807308 -0.5 L 25 -0.5 Z M 117.50493137807308 0.5 L 150.82236275614616 0.5 L 150.82236275614616 3.5 L 157.82236275614616 0 L 150.82236275614616 -3.5 L 150.82236275614616 -0.5 L 117.50493137807308 -0.5 Z"/><text text-anchor="middle" pointer-events="none" font-size="8px" fill="#000000" x="87.91118137807308" y="3" font-family="sans-serif">DESTINATION</text></g><g class="relationship" transform="translate(-512.6126319663613 -173.18034519413422) rotate(346.18977311795663)"><path class="outline" fill="#A5ABB6" stroke="none" d="M 25 0.5 L 85.03613035882738 0.5 L 85.03613035882738 -0.5 L 25 -0.5 Z M 119.48144285882738 0.5 L 179.51757321765476 0.5 L 179.51757321765476 3.5 L 186.51757321765476 0 L 179.51757321765476 -3.5 L 179.51757321765476 -0.5 L 119.48144285882738 -0.5 Z"/><text text-anchor="middle" pointer-events="none" font-size="8px" fill="#000000" x="102.25878660882738" y="3" font-family="sans-serif">ORIGIN</text></g><g class="relationship" transform="translate(-512.6126319663613 -173.18034519413422) rotate(373.47959973652297)"><path class="outline" fill="#A5ABB6" stroke="none" d="M 25 0.5 L 57.0221392648551 0.5 L 57.0221392648551 -0.5 L 25 -0.5 Z M 116.2096392648551 0.5 L 148.2317785297102 0.5 L 148.2317785297102 3.5 L 155.2317785297102 0 L 148.2317785297102 -3.5 L 148.2317785297102 -0.5 L 116.2096392648551 -0.5 Z"/><text text-anchor="middle" pointer-events="none" font-size="8px" fill="#000000" x="86.6158892648551" y="3" font-family="sans-serif">DESTINATION</text></g><g class="relationship" transform="translate(-358.8247638858778 -369.6133462812403) rotate(430.52295619082565)"><path class="outline" fill="#A5ABB6" stroke="none" d="M 25 0.5 L 56.67772807935921 0.5 L 56.67772807935921 -0.5 L 25 -0.5 Z M 91.12304057935921 0.5 L 122.80076865871843 0.5 L 122.80076865871843 3.5 L 129.80076865871843 0 L 122.80076865871843 -3.5 L 122.80076865871843 -0.5 L 91.12304057935921 -0.5 Z"/><text text-anchor="middle" pointer-events="none" font-size="8px" fill="#000000" x="73.90038432935921" y="3" font-family="sans-serif">ORIGIN</text></g><g class="relationship" transform="translate(-358.8247638858778 -369.6133462812403) rotate(400.3997292487244)"><path class="outline" fill="#A5ABB6" stroke="none" d="M 25 0.5 L 64.44828158602674 0.5 L 64.44828158602674 -0.5 L 25 -0.5 Z M 123.63578158602674 0.5 L 163.08406317205348 0.5 L 163.08406317205348 3.5 L 170.08406317205348 0 L 163.08406317205348 -3.5 L 163.08406317205348 -0.5 L 123.63578158602674 -0.5 Z"/><text text-anchor="middle" pointer-events="none" font-size="8px" fill="#000000" x="94.04203158602674" y="3" font-family="sans-serif">DESTINATION</text></g><g class="relationship" transform="translate(-415.6785624023011 -187.38558986567446) rotate(341.50367925048124)"><path class="outline" fill="#A5ABB6" stroke="none" d="M 25 0.5 L 36.46591895421095 0.5 L 36.46591895421095 -0.5 L 25 -0.5 Z M 70.91123145421095 0.5 L 82.3771504084219 0.5 L 82.3771504084219 3.5 L 89.3771504084219 0 L 82.3771504084219 -3.5 L 82.3771504084219 -0.5 L 70.91123145421095 -0.5 Z"/><text text-anchor="middle" pointer-events="none" font-size="8px" fill="#000000" x="53.68857520421095" y="3" font-family="sans-serif">ORIGIN</text></g><g class="relationship" transform="translate(-415.6785624023011 -187.38558986567446) rotate(371.9223352051973)"><path class="outline" fill="#A5ABB6" stroke="none" d="M 25 0.5 L 55.005427000535406 0.5 L 55.005427000535406 -0.5 L 25 -0.5 Z M 114.1929270005354 0.5 L 144.1983540010708 0.5 L 144.1983540010708 3.5 L 151.1983540010708 0 L 144.1983540010708 -3.5 L 144.1983540010708 -0.5 L 114.1929270005354 -0.5 Z"/><text text-anchor="middle" pointer-events="none" font-size="8px" fill="#000000" x="84.5991770005354" y="3" font-family="sans-serif">DESTINATION</text></g><g class="relationship" transform="translate(-457.46897025713207 2.4722538977939195) rotate(303.60176802178427)"><path class="outline" fill="#A5ABB6" stroke="none" d="M 25 0.5 L 115.03322703546289 0.5 L 115.03322703546289 -0.5 L 25 -0.5 Z M 149.4785395354629 0.5 L 239.51176657092577 0.5 L 239.51176657092577 3.5 L 246.51176657092577 0 L 239.51176657092577 -3.5 L 239.51176657092577 -0.5 L 149.4785395354629 -0.5 Z"/><text text-anchor="middle" pointer-events="none" font-size="8px" fill="#000000" x="132.2558832854629" y="3" font-family="sans-serif">ORIGIN</text></g><g class="relationship" transform="translate(-457.46897025713207 2.4722538977939195) rotate(311.95085944433345)"><path class="outline" fill="#A5ABB6" stroke="none" d="M 25 0.5 L 56.75256812721592 0.5 L 56.75256812721592 -0.5 L 25 -0.5 Z M 115.94006812721592 0.5 L 147.69263625443185 0.5 L 147.69263625443185 3.5 L 154.69263625443185 0 L 147.69263625443185 -3.5 L 147.69263625443185 -0.5 L 115.94006812721592 -0.5 Z"/><text text-anchor="middle" pointer-events="none" font-size="8px" fill="#000000" x="86.34631812721592" y="3" font-family="sans-serif">DESTINATION</text></g><g class="relationship" transform="translate(-451.1818708914867 -95.69110284752205) rotate(318.36542944108953)"><path class="outline" fill="#A5ABB6" stroke="none" d="M 25 0.5 L 75.59304113290192 0.5 L 75.59304113290192 -0.5 L 25 -0.5 Z M 110.03835363290192 0.5 L 160.63139476580383 0.5 L 160.63139476580383 3.5 L 167.63139476580383 0 L 160.63139476580383 -3.5 L 160.63139476580383 -0.5 L 110.03835363290192 -0.5 Z"/><text text-anchor="middle" pointer-events="none" font-size="8px" fill="#000000" x="92.81569738290192" y="3" font-family="sans-serif">ORIGIN</text></g><g class="relationship" transform="translate(-451.1818708914867 -95.69110284752205) rotate(483.88738269953615)"><path class="outline" fill="#A5ABB6" stroke="none" d="M 25 0.5 L 52.630361539984634 0.5 L 52.630361539984634 -0.5 L 25 -0.5 Z M 111.81786153998463 0.5 L 139.44822307996927 0.5 L 139.44822307996927 3.5 L 146.44822307996927 0 L 139.44822307996927 -3.5 L 139.44822307996927 -0.5 L 111.81786153998463 -0.5 Z"/><text text-anchor="middle" pointer-events="none" font-size="8px" fill="#000000" x="82.22411153998463" y="3" transform="rotate(180 82.22411153998463 0)" font-family="sans-serif">DESTINATION</text></g><g class="relationship" transform="translate(-370.6712216758468 -40.9783482273672) rotate(289.1555787362894)"><path class="outline" fill="#A5ABB6" stroke="none" d="M 25 0.5 L 75.97789031072767 0.5 L 75.97789031072767 -0.5 L 25 -0.5 Z M 110.42320281072767 0.5 L 161.40109312145535 0.5 L 161.40109312145535 3.5 L 168.40109312145535 0 L 161.40109312145535 -3.5 L 161.40109312145535 -0.5 L 110.42320281072767 -0.5 Z"/><text text-anchor="middle" pointer-events="none" font-size="8px" fill="#000000" x="93.20054656072767" y="3" font-family="sans-serif">ORIGIN</text></g><g class="relationship" transform="translate(-370.6712216758468 -40.9783482273672) rotate(319.1878979758434)"><path class="outline" fill="#A5ABB6" stroke="none" d="M 25 0.5 L 51.06359508317978 0.5 L 51.06359508317978 -0.5 L 25 -0.5 Z M 110.25109508317978 0.5 L 136.31469016635955 0.5 L 136.31469016635955 3.5 L 143.31469016635955 0 L 136.31469016635955 -3.5 L 136.31469016635955 -0.5 L 110.25109508317978 -0.5 Z"/><text text-anchor="middle" pointer-events="none" font-size="8px" fill="#000000" x="80.65734508317978" y="3" font-family="sans-serif">DESTINATION</text></g><g class="relationship" transform="translate(-271.95787549234524 -58.6996353800586) rotate(257.93819169552137)"><path class="outline" fill="#A5ABB6" stroke="none" d="M 25 0.5 L 63.62520888395137 0.5 L 63.62520888395137 -0.5 L 25 -0.5 Z M 98.07052138395137 0.5 L 136.69573026790275 0.5 L 136.69573026790275 3.5 L 143.69573026790275 0 L 136.69573026790275 -3.5 L 136.69573026790275 -0.5 L 98.07052138395137 -0.5 Z"/><text text-anchor="middle" pointer-events="none" font-size="8px" fill="#000000" x="80.84786513395137" y="3" transform="rotate(180 80.84786513395137 0)" font-family="sans-serif">ORIGIN</text></g><g class="relationship" transform="translate(-271.95787549234524 -58.6996353800586) rotate(288.49237615772284)"><path class="outline" fill="#A5ABB6" stroke="none" d="M 25 0.5 L 64.16647176481837 0.5 L 64.16647176481837 -0.5 L 25 -0.5 Z M 123.35397176481837 0.5 L 162.52044352963674 0.5 L 162.52044352963674 3.5 L 169.52044352963674 0 L 162.52044352963674 -3.5 L 162.52044352963674 -0.5 L 123.35397176481837 -0.5 Z"/><text text-anchor="middle" pointer-events="none" font-size="8px" fill="#000000" x="93.76022176481837" y="3" font-family="sans-serif">DESTINATION</text></g><g class="relationship" transform="translate(-305.94955756282974 33.75613008220648) rotate(269.71953689237006)"><path class="outline" fill="#A5ABB6" stroke="none" d="M 25 0.5 L 107.99246437308287 0.5 L 107.99246437308287 -0.5 L 25 -0.5 Z M 142.43777687308287 0.5 L 225.43024124616574 0.5 L 225.43024124616574 3.5 L 232.43024124616574 0 L 225.43024124616574 -3.5 L 225.43024124616574 -0.5 L 142.43777687308287 -0.5 Z"/><text text-anchor="middle" pointer-events="none" font-size="8px" fill="#000000" x="125.21512062308287" y="3" transform="rotate(180 125.21512062308287 0)" font-family="sans-serif">ORIGIN</text></g><g class="relationship" transform="translate(-305.94955756282974 33.75613008220648) rotate(259.22175857044704)"><path class="outline" fill="#A5ABB6" stroke="none" d="M 25 0.5 L 50.84944921242379 0.5 L 50.84944921242379 -0.5 L 25 -0.5 Z M 110.03694921242379 0.5 L 135.88639842484758 0.5 L 135.88639842484758 3.5 L 142.88639842484758 0 L 135.88639842484758 -3.5 L 135.88639842484758 -0.5 L 110.03694921242379 -0.5 Z"/><text text-anchor="middle" pointer-events="none" font-size="8px" fill="#000000" x="80.44319921242379" y="3" transform="rotate(180 80.44319921242379 0)" font-family="sans-serif">DESTINATION</text></g></g><g class="layer nodes"><g class="node" aria-label="graph-node375" transform="translate(-307.2096747606661,-223.67102701802415)"><circle class="outline" cx="0" cy="0" r="25" fill="#8DCC93" stroke="#5db665" stroke-width="2px"/><text class="caption" text-anchor="middle" pointer-events="none" x="0" y="5" font-size="10px" fill="#2A2C34" font-family="sans-serif"> LAX</text></g><g class="node" aria-label="graph-node410" transform="translate(-337.3457023139634,-131.16847351238314)"><circle class="outline" cx="0" cy="0" r="25" fill="#8DCC93" stroke="#5db665" stroke-width="2px"/><text class="caption" text-anchor="middle" pointer-events="none" x="0" y="5" font-size="10px" fill="#2A2C34" font-family="sans-serif"> ABQ</text></g><g class="node" aria-label="graph-node412" transform="translate(45.621557640696764,69.30086719944664)"><circle class="outline" cx="0" cy="0" r="25" fill="#8DCC93" stroke="#5db665" stroke-width="2px"/><text class="caption" text-anchor="middle" pointer-events="none" x="0" y="5" font-size="10px" fill="#2A2C34" font-family="sans-serif"> TUS</text></g><g class="node" aria-label="graph-node395" transform="translate(112.9537457485543,-125.61331124318558)"><circle class="outline" cx="0" cy="0" r="25" fill="#8DCC93" stroke="#5db665" stroke-width="2px"/><text class="caption" text-anchor="middle" pointer-events="none" x="0" y="5" font-size="10px" fill="#2A2C34" font-family="sans-serif"> LAS</text></g><g class="node" aria-label="graph-node386" transform="translate(76.76531921139512,-365.37362615194746)"><circle class="outline" cx="0" cy="0" r="25" fill="#8DCC93" stroke="#5db665" stroke-width="2px"/><text class="caption" text-anchor="middle" pointer-events="none" x="0" y="5" font-size="10px" fill="#2A2C34" font-family="sans-serif"> BOS</text></g><g class="node" aria-label="graph-node383" transform="translate(-243.28106632294927,-150.98554455998104)"><circle class="outline" cx="0" cy="0" r="25" fill="#8DCC93" stroke="#5db665" stroke-width="2px"/><text class="caption" text-anchor="middle" pointer-events="none" x="0" y="5" font-size="10px" fill="#2A2C34" font-family="sans-serif"> SMF</text></g><g class="node" aria-label="graph-node411" transform="translate(-210.26017910982264,-243.17618459988938)"><circle class="outline" cx="0" cy="0" r="25" fill="#8DCC93" stroke="#5db665" stroke-width="2px"/><text class="caption" text-anchor="middle" pointer-events="none" x="0" y="5" font-size="10px" fill="#2A2C34" font-family="sans-serif"> FAT</text></g><g class="node" aria-label="graph-node372" transform="translate(-546.7749391575403,46.63408289541146)"><circle class="outline" cx="0" cy="0" r="25" fill="#8DCC93" stroke="#5db665" stroke-width="2px"/><text class="caption" text-anchor="middle" pointer-events="none" x="0" y="5" font-size="10px" fill="#2A2C34" font-family="sans-serif"> IAH</text></g><g class="node" aria-label="graph-node1293" transform="translate(-209.6030739755803,16.92142389314241)"><circle class="outline" cx="0" cy="0" r="25" fill="#ECB5C9" stroke="#da7298" stroke-width="2px"/><text class="caption" text-anchor="middle" pointer-events="none" x="0" y="0" font-size="10px" fill="#2A2C34" font-family="sans-serif"> 11/4/2015</text><text class="caption" text-anchor="middle" pointer-events="none" x="0" y="10" font-size="10px" fill="#2A2C34" font-family="sans-serif"> 15:09:…</text></g><g class="node" aria-label="graph-node1353" transform="translate(-113.0544181424615,-1.9947354621180675)"><circle class="outline" cx="0" cy="0" r="25" fill="#ECB5C9" stroke="#da7298" stroke-width="2px"/><text class="caption" text-anchor="middle" pointer-events="none" x="0" y="0" font-size="10px" fill="#2A2C34" font-family="sans-serif"> 11/2/2015</text><text class="caption" text-anchor="middle" pointer-events="none" x="0" y="10" font-size="10px" fill="#2A2C34" font-family="sans-serif"> 09:52:…</text></g><g class="node" aria-label="graph-node1029" transform="translate(-48.046011235829184,-188.61751555981488)"><circle class="outline" cx="0" cy="0" r="25" fill="#ECB5C9" stroke="#da7298" stroke-width="2px"/><text class="caption" text-anchor="middle" pointer-events="none" x="0" y="5" font-size="10px" fill="#2A2C34" font-family="sans-serif"> 11/29/20…</text></g><g class="node" aria-label="graph-node1301" transform="translate(-177.33458541357757,-76.08052038124247)"><circle class="outline" cx="0" cy="0" r="25" fill="#ECB5C9" stroke="#da7298" stroke-width="2px"/><text class="caption" text-anchor="middle" pointer-events="none" x="0" y="0" font-size="10px" fill="#2A2C34" font-family="sans-serif"> 11/3/2015</text><text class="caption" text-anchor="middle" pointer-events="none" x="0" y="10" font-size="10px" fill="#2A2C34" font-family="sans-serif"> 21:46:…</text></g><g class="node" aria-label="graph-node1017" transform="translate(-88.85169144370283,-357.6113366610173)"><circle class="outline" cx="0" cy="0" r="25" fill="#ECB5C9" stroke="#da7298" stroke-width="2px"/><text class="caption" text-anchor="middle" pointer-events="none" x="0" y="5" font-size="10px" fill="#2A2C34" font-family="sans-serif"> 11/29/20…</text></g><g class="node" aria-label="graph-node1297" transform="translate(-146.04966330700583,-168.4821427940749)"><circle class="outline" cx="0" cy="0" r="25" fill="#ECB5C9" stroke="#da7298" stroke-width="2px"/><text class="caption" text-anchor="middle" pointer-events="none" x="0" y="0" font-size="10px" fill="#2A2C34" font-family="sans-serif"> 11/1/2015</text><text class="caption" text-anchor="middle" pointer-events="none" x="0" y="10" font-size="10px" fill="#2A2C34" font-family="sans-serif"> 05:43:…</text></g><g class="node" aria-label="graph-node1349" transform="translate(-80.16369318974162,-94.68974462903833)"><circle class="outline" cx="0" cy="0" r="25" fill="#ECB5C9" stroke="#da7298" stroke-width="2px"/><text class="caption" text-anchor="middle" pointer-events="none" x="0" y="0" font-size="10px" fill="#2A2C34" font-family="sans-serif"> 11/1/2015</text><text class="caption" text-anchor="middle" pointer-events="none" x="0" y="10" font-size="10px" fill="#2A2C34" font-family="sans-serif"> 05:51:…</text></g><g class="node" aria-label="graph-node1369" transform="translate(-113.88601380929607,-262.46516583868373)"><circle class="outline" cx="0" cy="0" r="25" fill="#ECB5C9" stroke="#da7298" stroke-width="2px"/><text class="caption" text-anchor="middle" pointer-events="none" x="0" y="0" font-size="10px" fill="#2A2C34" font-family="sans-serif"> 11/1/2015</text><text class="caption" text-anchor="middle" pointer-events="none" x="0" y="10" font-size="10px" fill="#2A2C34" font-family="sans-serif"> 12:26:…</text></g><g class="node" aria-label="graph-node1289" transform="translate(-274.8544093289922,-316.6437708772725)"><circle class="outline" cx="0" cy="0" r="25" fill="#ECB5C9" stroke="#da7298" stroke-width="2px"/><text class="caption" text-anchor="middle" pointer-events="none" x="0" y="0" font-size="10px" fill="#2A2C34" font-family="sans-serif"> 11/2/2015</text><text class="caption" text-anchor="middle" pointer-events="none" x="0" y="10" font-size="10px" fill="#2A2C34" font-family="sans-serif"> 04:43:…</text></g><g class="node" aria-label="graph-node1325" transform="translate(-187.12386059722542,-364.05206866253235)"><circle class="outline" cx="0" cy="0" r="25" fill="#ECB5C9" stroke="#da7298" stroke-width="2px"/><text class="caption" text-anchor="middle" pointer-events="none" x="0" y="0" font-size="10px" fill="#2A2C34" font-family="sans-serif"> 11/2/2015</text><text class="caption" text-anchor="middle" pointer-events="none" x="0" y="10" font-size="10px" fill="#2A2C34" font-family="sans-serif"> 09:18:…</text></g><g class="node" aria-label="graph-node1365" transform="translate(-412.19436162509743,-286.21388115385963)"><circle class="outline" cx="0" cy="0" r="25" fill="#ECB5C9" stroke="#da7298" stroke-width="2px"/><text class="caption" text-anchor="middle" pointer-events="none" x="0" y="0" font-size="10px" fill="#2A2C34" font-family="sans-serif"> 11/2/2015</text><text class="caption" text-anchor="middle" pointer-events="none" x="0" y="10" font-size="10px" fill="#2A2C34" font-family="sans-serif"> 11:49:…</text></g><g class="node" aria-label="graph-node1329" transform="translate(-271.2926199663515,-415.5103294662919)"><circle class="outline" cx="0" cy="0" r="25" fill="#ECB5C9" stroke="#da7298" stroke-width="2px"/><text class="caption" text-anchor="middle" pointer-events="none" x="0" y="0" font-size="10px" fill="#2A2C34" font-family="sans-serif"> 11/1/2015</text><text class="caption" text-anchor="middle" pointer-events="none" x="0" y="10" font-size="10px" fill="#2A2C34" font-family="sans-serif"> 02:27:…</text></g><g class="node" aria-label="graph-node1345" transform="translate(-512.6126319663613,-173.18034519413422)"><circle class="outline" cx="0" cy="0" r="25" fill="#ECB5C9" stroke="#da7298" stroke-width="2px"/><text class="caption" text-anchor="middle" pointer-events="none" x="0" y="0" font-size="10px" fill="#2A2C34" font-family="sans-serif"> 11/2/2015</text><text class="caption" text-anchor="middle" pointer-events="none" x="0" y="10" font-size="10px" fill="#2A2C34" font-family="sans-serif"> 15:15:…</text></g><g class="node" aria-label="graph-node1321" transform="translate(-358.8247638858778,-369.6133462812403)"><circle class="outline" cx="0" cy="0" r="25" fill="#ECB5C9" stroke="#da7298" stroke-width="2px"/><text class="caption" text-anchor="middle" pointer-events="none" x="0" y="0" font-size="10px" fill="#2A2C34" font-family="sans-serif"> 11/3/2015</text><text class="caption" text-anchor="middle" pointer-events="none" x="0" y="10" font-size="10px" fill="#2A2C34" font-family="sans-serif"> 11:45:…</text></g><g class="node" aria-label="graph-node1377" transform="translate(-415.6785624023011,-187.38558986567446)"><circle class="outline" cx="0" cy="0" r="25" fill="#ECB5C9" stroke="#da7298" stroke-width="2px"/><text class="caption" text-anchor="middle" pointer-events="none" x="0" y="0" font-size="10px" fill="#2A2C34" font-family="sans-serif"> 11/3/2015</text><text class="caption" text-anchor="middle" pointer-events="none" x="0" y="10" font-size="10px" fill="#2A2C34" font-family="sans-serif"> 13:44:…</text></g><g class="node" aria-label="graph-node1337" transform="translate(-457.46897025713207,2.4722538977939195)"><circle class="outline" cx="0" cy="0" r="25" fill="#ECB5C9" stroke="#da7298" stroke-width="2px"/><text class="caption" text-anchor="middle" pointer-events="none" x="0" y="0" font-size="10px" fill="#2A2C34" font-family="sans-serif"> 11/3/2015</text><text class="caption" text-anchor="middle" pointer-events="none" x="0" y="10" font-size="10px" fill="#2A2C34" font-family="sans-serif"> 23:26:…</text></g><g class="node" aria-label="graph-node473" transform="translate(-451.1818708914867,-95.69110284752205)"><circle class="outline" cx="0" cy="0" r="25" fill="#ECB5C9" stroke="#da7298" stroke-width="2px"/><text class="caption" text-anchor="middle" pointer-events="none" x="0" y="5" font-size="10px" fill="#2A2C34" font-family="sans-serif"> 11/30/20…</text></g><g class="node" aria-label="graph-node1373" transform="translate(-370.6712216758468,-40.9783482273672)"><circle class="outline" cx="0" cy="0" r="25" fill="#ECB5C9" stroke="#da7298" stroke-width="2px"/><text class="caption" text-anchor="middle" pointer-events="none" x="0" y="0" font-size="10px" fill="#2A2C34" font-family="sans-serif"> 11/4/2015</text><text class="caption" text-anchor="middle" pointer-events="none" x="0" y="10" font-size="10px" fill="#2A2C34" font-family="sans-serif"> 05:06:…</text></g><g class="node" aria-label="graph-node1333" transform="translate(-271.95787549234524,-58.6996353800586)"><circle class="outline" cx="0" cy="0" r="25" fill="#ECB5C9" stroke="#da7298" stroke-width="2px"/><text class="caption" text-anchor="middle" pointer-events="none" x="0" y="0" font-size="10px" fill="#2A2C34" font-family="sans-serif"> 11/4/2015</text><text class="caption" text-anchor="middle" pointer-events="none" x="0" y="10" font-size="10px" fill="#2A2C34" font-family="sans-serif"> 15:13:…</text></g><g class="node" aria-label="graph-node1341" transform="translate(-305.94955756282974,33.75613008220648)"><circle class="outline" cx="0" cy="0" r="25" fill="#ECB5C9" stroke="#da7298" stroke-width="2px"/><text class="caption" text-anchor="middle" pointer-events="none" x="0" y="0" font-size="10px" fill="#2A2C34" font-family="sans-serif"> 11/1/2015</text><text class="caption" text-anchor="middle" pointer-events="none" x="0" y="10" font-size="10px" fill="#2A2C34" font-family="sans-serif"> 17:17:…</text></g></g></svg>